<svg width="100" height="76" viewBox="0 0 100 76" fill="none" xmlns="http://www.w3.org/2000/svg">
<g clip-path="url(#clip0_571_78)">
<path d="M53.1503 0.756592H62.5078C63.3002 0.756592 63.9427 1.40123 63.9427 2.19624V10.8527C63.9427 11.6477 63.3002 12.2924 62.5078 12.2924H53.1503V0.756592Z" fill="#FF473E"/>
<path d="M53.2623 12.2614H44.3662C43.5738 12.2614 42.9313 11.6168 42.9313 10.8218V2.22725C42.9313 1.43224 43.5738 0.787598 44.3662 0.787598H53.2623V12.2614Z" fill="#65BBF2"/>
<path d="M99.9698 59.2098V36.4433C99.9698 33.7754 98.332 31.3102 95.6738 29.9771L90.5823 27.4235C89.9214 27.092 89.3144 26.6855 88.777 26.2146L70.54 10.2329C69.4469 9.14697 67.8679 8.52393 66.2079 8.52393H10.315C5.57233 8.52393 1.72746 11.8663 1.72746 15.9891V59.2096C1.72746 63.3326 5.57233 66.6748 10.315 66.6748H91.3823C96.125 66.675 99.9698 63.3328 99.9698 59.2098Z" fill="#DEE1E2"/>
<path d="M2 16C2 11.5817 5.58172 8 10 8H49V44H2V16Z" fill="#649CC8"/>
<path d="M92.145 66.4901C92.145 59.7041 86.6617 54.2029 79.8979 54.2029C73.1341 54.2029 67.6508 59.7041 67.6508 66.4901M12.2477 66.4901C12.2477 59.7041 17.7309 54.2029 24.4947 54.2029C31.2585 54.2029 36.7418 59.7041 36.7418 66.4901" fill="#9BA5A8"/>
<path d="M70.9537 66.49C70.9537 71.446 74.9582 75.4636 79.898 75.4636C84.8378 75.4636 88.8423 71.446 88.8423 66.49C88.8423 61.534 84.8378 57.5164 79.898 57.5164C74.9582 57.5164 70.9537 61.534 70.9537 66.49ZM24.4948 57.5164C29.4346 57.5164 33.4391 61.534 33.4391 66.49C33.4391 71.446 29.4346 75.4636 24.4948 75.4636C19.555 75.4636 15.5505 71.446 15.5505 66.49C15.5505 61.534 19.555 57.5164 24.4948 57.5164Z" fill="#2B3B47"/>
<path d="M66.7179 14.5437H55.28C54.4449 14.5437 53.7681 15.2229 53.7681 16.0605V29.579C53.7681 30.4168 54.4451 31.0959 55.28 31.0959H80.8179C82.1815 31.0959 82.8484 29.4275 81.8624 28.4823L67.7625 14.9638C67.4812 14.6943 67.107 14.5437 66.7179 14.5437Z" fill="#649CC8"/>
<path d="M14.5262 22.2471V28.9418C14.5262 29.1794 14.7184 29.3719 14.9556 29.3719H21.3317V35.7587C21.3317 35.9963 21.524 36.1889 21.7612 36.1889H28.4446C28.6818 36.1889 28.874 35.9963 28.874 35.7587V29.3719H35.2502C35.4873 29.3719 35.6796 29.1794 35.6796 28.9418V22.2471C35.6796 22.0095 35.4873 21.817 35.2502 21.817H28.874V15.4301C28.874 15.1926 28.6818 15 28.4446 15H21.7612C21.524 15 21.3317 15.1926 21.3317 15.4301V21.817H14.9556C14.7184 21.817 14.5262 22.0095 14.5262 22.2471ZM2 44.1107H100V52H2V44.1107Z" fill="#DEE1E2"/>
<rect x="2" y="44" width="6" height="7" fill="#2F5476"/>
<rect x="94" y="44" width="6" height="7" fill="#2F5476"/>
<path d="M75.8221 66.4901C75.8221 68.7485 77.6468 70.5793 79.8979 70.5793C82.149 70.5793 83.9738 68.7485 83.9738 66.4901C83.9738 64.2316 82.149 62.4009 79.8979 62.4009C77.6468 62.4009 75.8221 64.2316 75.8221 66.4901ZM24.4947 62.4009C26.7458 62.4009 28.5706 64.2316 28.5706 66.4901C28.5706 68.7485 26.7458 70.5793 24.4947 70.5793C22.2436 70.5793 20.4189 68.7485 20.4189 66.4901C20.4189 64.2316 22.2436 62.4009 24.4947 62.4009Z" fill="#9BA5A8"/>
<rect x="54" y="40" width="7" height="3" fill="#2B3B47"/>
</g>
<defs>
<clipPath id="clip0_571_78">
<rect width="100" height="75.7576" fill="white" transform="matrix(-1 0 0 1 100 0)"/>
</clipPath>
</defs>
</svg>
