<svg width="680" height="459" viewBox="0 0 680 459" fill="none" xmlns="http://www.w3.org/2000/svg">
<path d="M315.683 0.742241C280.974 4.47995 248.905 21.024 225.743 47.1422C203.173 72.8422 188.383 103.842 172.203 133.602C156.023 163.362 137.533 193.122 109.853 213.842C83.4626 233.582 49.1026 244.842 30.0126 271.172C10.3526 298.242 12.5026 336.302 30.0126 364.702C47.5226 393.102 78.0126 412.562 110.503 423.602C142.993 434.642 177.743 438.032 212.143 440.672C323.823 449.212 439.083 449.842 544.363 413.282C582.243 400.122 620.693 380.082 638.653 345.652C656.523 311.392 649.883 269.002 630.213 235.652C610.543 202.302 579.453 176.512 547.443 153.442C515.433 130.372 481.633 109.122 453.633 81.7122C433.913 62.4022 417.173 40.1422 395.013 23.4222C372.853 6.70224 348.623 -2.81776 315.683 0.742241Z" fill="#E4EFED"/>
<path d="M454.563 445.712C454.763 391.052 470.203 336.572 498.343 291.292C526.483 246.012 567.173 210.122 617.343 191.762C622.903 247.562 609.033 305.402 579.113 351.122C549.193 396.842 503.513 430.012 454.563 445.712Z" fill="#70A8C4"/>
<path d="M608.313 206.642C549.332 275.198 501.875 352.875 467.793 436.642" stroke="#EAF8F9" stroke-miterlimit="10" stroke-linecap="round"/>
<path d="M578.413 243.302C576.889 234.721 576.602 225.965 577.563 217.302" stroke="#EAF8F9" stroke-miterlimit="10" stroke-linecap="round"/>
<path d="M562.963 264.392C577.373 266.555 592.006 266.81 606.483 265.152" stroke="#EAF8F9" stroke-miterlimit="10" stroke-linecap="round"/>
<path d="M531.593 310.962C525.676 297.331 521.59 282.976 519.443 268.272" stroke="#EAF8F9" stroke-miterlimit="10" stroke-linecap="round"/>
<path d="M518.743 334.172C538.111 338.665 557.911 341.029 577.793 341.222" stroke="#EAF8F9" stroke-miterlimit="10" stroke-linecap="round"/>
<path d="M496.903 373.122C489.87 361.283 484.487 348.538 480.903 335.242" stroke="#EAF8F9" stroke-miterlimit="10" stroke-linecap="round"/>
<path d="M460.853 446.902C480.569 409.175 513.621 380.137 553.573 365.442C573.868 358.051 595.446 354.826 617.016 355.962C638.586 357.098 659.705 362.57 679.113 372.052C623.243 426.952 541.043 453.762 460.853 446.902Z" fill="#82CED8"/>
<path d="M661.603 375.722C594.053 382.618 528.959 404.798 471.253 440.582" stroke="#EAF8F9" stroke-miterlimit="10" stroke-linecap="round"/>
<path d="M619.243 381.842C622.182 375.212 625.873 368.941 630.243 363.152" stroke="#EAF8F9" stroke-miterlimit="10" stroke-linecap="round"/>
<path d="M602.743 386.182C609.937 393.958 618.473 400.373 627.943 405.122" stroke="#EAF8F9" stroke-miterlimit="10" stroke-linecap="round"/>
<path d="M568.283 395.712C568.454 384.433 570.932 373.308 575.563 363.022" stroke="#EAF8F9" stroke-miterlimit="10" stroke-linecap="round"/>
<path d="M548.963 402.782C554.41 414.142 562.019 424.332 571.363 432.782" stroke="#EAF8F9" stroke-miterlimit="10" stroke-linecap="round"/>
<path d="M521.653 413.412C520.613 404.791 520.782 396.067 522.153 387.492" stroke="#EAF8F9" stroke-miterlimit="10" stroke-linecap="round"/>
<path d="M501.573 423.742C509.117 430.413 518.176 435.14 527.963 437.512" stroke="#EAF8F9" stroke-miterlimit="10" stroke-linecap="round"/>
<path d="M297.793 438.182C301.643 382.362 305.423 325.632 292.973 271.022C280.523 216.412 249.343 163.202 196.413 138.182C174.883 193.182 161.613 253.402 174.693 310.832C187.773 368.262 232.083 421.692 297.793 438.182Z" fill="#82CED8"/>
<path d="M205.413 156.672C215.306 193.952 225.193 231.236 235.073 268.522C249.703 323.722 264.483 379.312 289.453 430.672" stroke="#EAF8F9" stroke-miterlimit="10" stroke-linecap="round"/>
<path d="M238.913 177.282C234.296 190.57 228.31 203.342 221.053 215.392" stroke="#EAF8F9" stroke-miterlimit="10" stroke-linecap="round"/>
<path d="M227.213 239.072C210.032 241.384 192.676 242.11 175.363 241.242" stroke="#EAF8F9" stroke-miterlimit="10" stroke-linecap="round"/>
<path d="M243.643 298.682C259.924 285.549 273.952 269.846 285.173 252.192" stroke="#EAF8F9" stroke-miterlimit="10" stroke-linecap="round"/>
<path d="M252.213 332.052C234.763 336.935 216.426 337.749 198.613 334.432" stroke="#EAF8F9" stroke-miterlimit="10" stroke-linecap="round"/>
<path d="M269.933 385.922C280.927 375.469 289.951 363.122 296.573 349.472" stroke="#EAF8F9" stroke-miterlimit="10" stroke-linecap="round"/>
<path d="M276.463 439.842C219.743 348.842 111.743 292.492 4.74268 297.932C15.8627 351.722 51.8427 399.842 100.283 425.742C148.723 451.642 208.743 454.842 276.463 439.842Z" fill="#70A8C4"/>
<path d="M22.6127 309.372C46.1927 333.152 70.0527 357.172 98.5027 374.832C128.763 393.622 163.143 404.552 197.303 414.632C219.843 421.299 242.466 427.656 265.173 433.702" stroke="#EAF8F9" stroke-miterlimit="10" stroke-linecap="round"/>
<path d="M63.2027 348.342C66.3187 334.57 67.663 320.455 67.2027 306.342" stroke="#EAF8F9" stroke-miterlimit="10" stroke-linecap="round"/>
<path d="M51.1327 337.672C44.0962 341.573 36.6337 344.65 28.8927 346.842" stroke="#EAF8F9" stroke-miterlimit="10" stroke-linecap="round"/>
<path d="M74.7427 404.712C87.4441 398.899 99.0951 391.023 109.223 381.402" stroke="#EAF8F9" stroke-miterlimit="10" stroke-linecap="round"/>
<path d="M136.033 393.842C139.226 373.674 140.565 353.255 140.033 332.842" stroke="#EAF8F9" stroke-miterlimit="10" stroke-linecap="round"/>
<path d="M217.973 378.072C218.35 391.94 216.955 405.798 213.823 419.312" stroke="#EAF8F9" stroke-miterlimit="10" stroke-linecap="round"/>
<path d="M203.863 416.922C196.97 427.201 187.488 435.48 176.373 440.922" stroke="#EAF8F9" stroke-miterlimit="10" stroke-linecap="round"/>
<path d="M279.893 320.372C279.893 320.372 277.563 325.302 273.893 333.002C266.593 348.342 254.003 374.652 244.033 394.832C237.463 408.162 232.033 418.832 230.033 421.882C223.483 431.882 58.0927 422.632 58.0927 422.632L56.7427 389.412C56.7427 389.412 175.913 377.842 179.143 375.632C180.143 374.952 184.203 365.412 189.303 352.632C194.633 339.282 201.093 322.362 206.473 308.142C212.583 292.002 217.273 279.342 217.273 279.342L279.893 320.372Z" fill="#E8AA80"/>
<path d="M273.893 333.002C266.593 348.342 254.003 374.652 244.033 394.832L189.313 352.582C194.643 339.232 201.103 322.312 206.483 308.092L273.893 333.002Z" fill="#D68163"/>
<path d="M287.123 266.962L263.743 216.092C263.743 216.092 240.193 225.942 228.533 242.332C216.873 258.722 185.533 344.812 185.533 344.812L259.463 378.622L287.123 266.962Z" fill="#32B38E"/>
<path d="M77.7427 417.842C63.0327 435.012 43.9827 437.272 30.5927 437.032C23.4627 436.902 17.6827 432.962 24.8627 426.182C20.7412 426.2 16.6488 425.493 12.7727 424.092C7.96266 422.342 2.56266 418.142 0.682661 413.382C-0.977339 409.182 0.682661 404.472 2.54266 400.382C5.97414 392.676 9.98567 385.241 14.5427 378.142C17.5427 373.462 21.3027 368.582 26.7327 367.382C31.8627 366.252 37.0227 368.712 41.7327 371.112C51.2027 375.962 77.4027 389.392 79.9227 391.702C82.0127 393.592 72.7427 410.842 77.7427 417.842Z" fill="#E8AA80"/>
<path d="M26.3227 425.022C31.709 420.995 36.6235 416.372 40.9727 411.242" stroke="#CF5953" stroke-width="2" stroke-miterlimit="10" stroke-linecap="round"/>
<path d="M35.0727 416.382L27.0727 402.382" stroke="#CF5953" stroke-width="2" stroke-miterlimit="10" stroke-linecap="round"/>
<path d="M31.9327 412.042C28.4701 411.276 24.854 411.626 21.6027 413.042" stroke="#CF5953" stroke-width="2" stroke-miterlimit="10" stroke-linecap="round"/>
<path d="M402.263 212.902C402.263 212.902 368.953 255.492 338.353 256.542C310.353 257.542 277.563 211.452 277.563 211.452C277.563 211.452 296.853 211.012 303.453 205.352C305.603 203.502 307.453 197.472 308.853 190.182C310.123 183.792 311.123 176.432 311.853 170.062C312.853 161.332 313.343 154.442 313.343 154.442L360.743 148.342C360.743 148.342 361.803 162.912 363.173 177.182C363.863 184.312 364.633 191.382 365.403 196.502C365.676 198.897 366.161 201.263 366.853 203.572C369.433 210.192 402.263 212.902 402.263 212.902Z" fill="#E8AA80"/>
<path d="M365.403 196.512C336.473 201.902 318.923 181.082 311.843 170.072C312.843 161.342 313.333 154.452 313.333 154.452L360.743 148.352C360.743 148.352 361.803 162.922 363.173 177.192C363.873 184.332 364.643 191.392 365.403 196.512Z" fill="#D68163"/>
<path d="M408.439 148.53C418.405 146.488 425.096 138.056 423.383 129.697C421.67 121.337 412.202 116.217 402.236 118.259C392.27 120.301 385.58 128.733 387.293 137.092C389.005 145.451 398.473 150.572 408.439 148.53Z" fill="#D68163"/>
<path d="M291.253 115.482C292.933 78.4823 316.793 48.3223 348.313 48.3223C379.833 48.3223 405.373 78.3923 405.373 115.482C405.373 152.572 381.633 184.132 357.903 186.842C326.583 190.372 289.503 154.082 291.253 115.482Z" fill="#E8AA80"/>
<path d="M301.573 128.192C304.773 120.192 312.513 96.7822 319.133 86.4922C319.133 86.4922 347.603 95.3622 361.133 94.1122C378.013 92.5622 377.693 83.6022 374.523 79.2722L392.453 87.8722L404.093 120.382L399.483 72.6622L311.213 56.0922L292.863 100.662" fill="#D68163"/>
<path d="M317.293 115.402C324.383 108.772 333.353 107.912 340.403 111.482" stroke="#08183D" stroke-width="3" stroke-miterlimit="10" stroke-linecap="round"/>
<path d="M395.803 115.052C388.513 108.642 379.523 108.052 372.583 111.832" stroke="#08183D" stroke-width="3" stroke-miterlimit="10" stroke-linecap="round"/>
<path d="M358.413 134.262C359.108 139.588 358.644 145.002 357.053 150.132" stroke="#CF5953" stroke-width="3" stroke-miterlimit="10" stroke-linecap="round"/>
<path d="M338.043 155.402C342.043 159.842 351.673 162.872 357.043 162.402" stroke="#CF5953" stroke-width="3" stroke-miterlimit="10" stroke-linecap="round"/>
<path d="M408.193 99.3522C407.133 114.592 403.893 131.862 403.893 131.862C402.313 113.342 400.803 98.3022 396.183 84.6722L360.873 69.7322C360.873 69.7322 380.403 84.4622 366.873 88.3922C353.043 92.3922 317.253 79.5322 317.253 79.5322C312.483 87.8822 304.433 119.722 302.383 134.452C301.323 142.052 284.673 126.452 284.953 132.392C284.953 132.392 265.243 79.3922 292.843 48.3322L293.053 48.1022C306.493 33.1022 325.173 27.8022 348.273 28.7522C386.013 28.7522 403.633 54.8622 407.513 81.8022C408.35 87.6126 408.578 93.4945 408.193 99.3522Z" fill="#08183D"/>
<path d="M407.543 81.8423C400.293 67.3461 388.91 55.3234 374.832 47.2928C360.753 39.2621 344.611 35.5838 328.443 36.7223C315.921 37.6973 303.806 41.6134 293.083 48.1523C306.523 33.1523 325.203 27.8523 348.303 28.8023C386.043 28.7523 403.653 54.8423 407.543 81.8423Z" fill="#1A3866"/>
<path d="M291.253 152.032C301.426 152.032 309.673 145.115 309.673 136.582C309.673 128.049 301.426 121.132 291.253 121.132C281.08 121.132 272.833 128.049 272.833 136.582C272.833 145.115 281.08 152.032 291.253 152.032Z" fill="#E8AA80"/>
<path d="M323.053 132.012C325.752 133.719 328.878 134.631 332.073 134.644C335.267 134.656 338.4 133.768 341.113 132.082" stroke="#2A334F" stroke-width="2" stroke-miterlimit="10" stroke-linecap="round"/>
<path d="M372.593 131.602C375.354 133.226 378.545 133.966 381.739 133.725C384.933 133.484 387.977 132.272 390.463 130.252" stroke="#2A334F" stroke-width="2" stroke-miterlimit="10" stroke-linecap="round"/>
<path d="M609.683 341.732C609.683 341.732 491.683 433.732 465.213 437.012C456.043 438.142 441.903 416.012 429.413 391.622C422.009 376.939 415.686 361.735 410.493 346.132L454.223 283.972L458.583 277.782L459.723 280.962C463.723 292.232 477.723 330.652 486.243 350.062C489.243 357.012 491.653 361.512 492.613 361.482C496.763 361.342 587.073 324.362 587.073 324.362L609.683 341.732Z" fill="#E8AA80"/>
<path d="M486.243 350.052L429.413 391.622C422.009 376.939 415.686 361.735 410.493 346.132L454.223 283.972L459.713 280.972C463.743 292.222 477.743 330.642 486.243 350.052Z" fill="#D68163"/>
<path d="M381.533 261.562L402.273 212.262C402.273 212.262 428.433 220.552 440.093 236.942C451.753 253.332 489.323 343.602 489.323 343.602L414.673 378.602L381.533 261.562Z" fill="#32B38E"/>
<path d="M570.293 333.672C570.293 333.672 583.633 293.852 587.293 288.122C590.703 282.742 621.523 260.022 628.053 263.792C634.583 267.562 609.703 285.542 609.703 285.542C609.703 285.542 642.033 268.152 646.303 274.332C651.213 281.452 614.953 298.572 614.953 298.572C614.953 298.572 651.633 288.922 651.633 293.352C651.633 298.792 621.173 308.502 621.173 308.502C621.173 308.502 652.353 304.622 651.653 309.392C650.653 316.052 620.313 319.392 620.313 319.392C620.313 319.392 616.223 347.512 597.873 350.112L570.293 333.672Z" fill="#E8AA80"/>
<path d="M583.093 307.912C590.057 299.926 597.706 292.565 605.953 285.912C607.042 284.928 608.303 284.152 609.673 283.622C610.323 283.325 611.044 283.219 611.752 283.316C612.46 283.413 613.126 283.71 613.672 284.171C614.219 284.632 614.622 285.239 614.837 285.921C615.051 286.603 615.067 287.332 614.883 288.022C614.605 289.342 614.101 290.604 613.393 291.752C610.523 297.012 607.303 302.082 603.873 307.462C605.351 311.266 605.913 315.365 605.514 319.427C605.114 323.489 603.764 327.399 601.573 330.842" fill="#E8AA80"/>
<path d="M583.093 307.912C590.057 299.926 597.706 292.565 605.953 285.912C607.042 284.928 608.303 284.152 609.673 283.622C610.323 283.325 611.044 283.219 611.752 283.316C612.46 283.413 613.126 283.71 613.672 284.171C614.219 284.632 614.622 285.239 614.837 285.921C615.051 286.603 615.067 287.332 614.883 288.022C614.605 289.342 614.101 290.604 613.393 291.752C610.523 297.012 607.303 302.082 603.873 307.462C605.351 311.266 605.913 315.365 605.514 319.427C605.114 323.489 603.764 327.399 601.573 330.842" stroke="#CF5953" stroke-width="2" stroke-miterlimit="10" stroke-linecap="round"/>
<path d="M431.953 373.742C428.643 415.922 424.473 450.572 424.473 450.572L255.083 451.102C255.083 451.102 253.083 435.502 250.443 412.632C243.883 355.152 233.693 251.722 243.043 234.002C255.423 210.542 295.433 207.842 295.433 207.842C295.433 207.842 335.863 252.172 337.783 251.342C342.153 249.452 371.783 205.172 371.783 205.172C371.783 205.172 419.533 210.932 429.233 229.752C439.273 249.262 436.343 318.052 431.953 373.742Z" fill="#3DC6A6"/>
<path d="M431.953 373.742C428.643 415.922 424.473 450.572 424.473 450.572L255.083 451.102C255.083 451.102 253.083 435.502 250.443 412.632C340.313 441.232 407.023 395.262 431.953 373.742Z" fill="#32B38E"/>
<path d="M339.213 250.732C360.213 247.282 380.093 250.972 398.553 260.422C397.553 256.762 395.683 251.272 394.643 247.612C394.41 246.462 393.91 245.383 393.183 244.462C392.003 243.182 390.113 242.882 388.373 242.712C372.623 241.172 356.483 243.772 339.213 250.732Z" fill="#32B38E"/>
<path d="M334.803 250.012C317.803 241.212 296.573 241.072 279.803 249.772C278.258 253.993 277.266 258.397 276.853 262.872C294.564 253.189 314.658 248.73 334.803 250.012Z" fill="#32B38E"/>
<path d="M337.643 251.402C350.903 237.042 360.513 222.672 366.853 200.902C366.853 200.902 382.223 198.152 387.673 208.832C389.963 213.322 400.083 254.432 400.083 254.432C380.743 244.842 359.483 245.582 337.643 251.402Z" fill="#E0FFFD"/>
<path d="M304.743 200.902C304.743 200.902 290.363 197.122 284.743 209.062C282.083 214.672 275.383 258.062 275.383 258.062C294.323 244.632 319.043 243.922 337.653 251.422C321.333 235.132 309.873 219.472 304.743 200.902Z" fill="#E0FFFD"/>
<path d="M128.793 369.512C153.503 366.862 177.003 368.422 203.493 368.422C202.013 352.172 202.183 325.782 203.993 309.562C184.948 303.895 165.58 299.381 145.993 296.042C141.153 316.842 136.043 348.362 128.793 369.512Z" fill="#A1A7BF"/>
<path d="M208.923 451.112L166.223 450.552C166.339 449.264 166.523 447.982 166.773 446.712C167.873 440.862 169.953 437.042 171.103 433.422L175.523 431.422C175.523 431.422 181.273 433.582 194.523 437.422C203.763 440.112 207.233 443.812 208.463 446.672C209.136 448.051 209.299 449.624 208.923 451.112Z" fill="#3D43AF"/>
<path d="M208.923 451.112L166.223 450.552C166.339 449.264 166.523 447.982 166.773 446.712H208.503C209.153 448.085 209.302 449.642 208.923 451.112Z" fill="#B8BFE6"/>
<path d="M112.653 451.112L155.353 450.552C155.236 449.264 155.052 447.982 154.803 446.712C153.703 440.862 151.623 437.042 150.473 433.422L146.053 431.422C146.053 431.422 140.303 433.582 127.053 437.422C117.813 440.112 114.343 443.812 113.113 446.672C112.439 448.051 112.276 449.624 112.653 451.112Z" fill="#3D43AF"/>
<path d="M112.653 451.112L155.353 450.552C155.236 449.264 155.052 447.982 154.803 446.712H113.073C112.422 448.085 112.274 449.642 112.653 451.112Z" fill="#B8BFE6"/>
<path d="M139.643 272.752L133.693 436.132L152.553 436.332L170.593 316.282L169.143 436.742L191.513 436.232L202.603 276.092L139.643 272.752Z" fill="#08183D"/>
<path d="M192.743 224.222L195.393 207.122C195.393 207.122 202.753 210.232 205.493 214.842C209.613 221.772 219.803 257.022 219.803 257.022L251.703 255.022L254.353 278.122C254.353 278.122 217.353 290.742 210.803 287.972C202.343 284.402 194.333 249.712 194.333 249.712L192.743 224.222Z" fill="#E1E8F5"/>
<path d="M257.173 249.932C257.173 249.932 264.433 241.682 265.723 243.192C268.053 245.912 260.313 254.602 260.313 254.602L257.173 249.932Z" fill="#D68163"/>
<path d="M222.023 228.988L216.125 287.461L257.176 291.602L263.075 233.129L222.023 228.988Z" fill="#89512C"/>
<path d="M224.873 231.908L219.809 282.114L254.652 285.628L259.717 235.423L224.873 231.908Z" fill="#F2F6FC"/>
<path d="M232.943 233.612L234.473 229.772C234.722 229.144 235.169 228.615 235.747 228.265C236.325 227.915 237.001 227.763 237.673 227.832L247.773 228.832C248.444 228.901 249.075 229.186 249.571 229.644C250.067 230.102 250.401 230.708 250.523 231.372L251.253 235.442L232.943 233.612Z" fill="#83A4DE"/>
<path d="M236.783 225.042L237.713 227.822L247.723 228.832L249.193 226.292L236.783 225.042Z" fill="#83A4DE"/>
<path d="M236.197 239.321L236.143 239.858L254.808 241.741L254.863 241.203L236.197 239.321Z" fill="#CED6F2"/>
<path d="M235.984 241.453L235.93 241.991L254.595 243.873L254.65 243.336L235.984 241.453Z" fill="#CED6F2"/>
<path d="M235.762 243.596L235.707 244.133L254.373 246.016L254.427 245.479L235.762 243.596Z" fill="#CED6F2"/>
<path d="M235.55 245.729L235.496 246.266L254.161 248.149L254.215 247.611L235.55 245.729Z" fill="#CED6F2"/>
<path d="M228.417 238.826L227.745 245.492L234.142 246.138L234.815 239.472L228.417 238.826Z" stroke="#CED6F2" stroke-width="0.5" stroke-miterlimit="10"/>
<path d="M231.429 248.883L231.374 249.42L253.811 251.683L253.865 251.146L231.429 248.883Z" fill="#CED6F2"/>
<path d="M227.353 250.622L227.299 251.159L253.585 253.811L253.639 253.274L227.353 250.622Z" fill="#CED6F2"/>
<path d="M227.145 252.775L227.091 253.312L253.378 255.959L253.432 255.422L227.145 252.775Z" fill="#CED6F2"/>
<path d="M226.928 254.888L226.874 255.426L253.161 258.077L253.215 257.54L226.928 254.888Z" fill="#CED6F2"/>
<path d="M229.275 268.057L229.221 268.594L251.657 270.857L251.711 270.32L229.275 268.057Z" fill="#CED6F2"/>
<path d="M225.206 269.802L225.152 270.34L251.439 272.987L251.493 272.449L225.206 269.802Z" fill="#CED6F2"/>
<path d="M224.998 271.94L224.944 272.477L251.231 275.129L251.285 274.591L224.998 271.94Z" fill="#CED6F2"/>
<path d="M224.775 274.063L224.721 274.6L251.008 277.251L251.062 276.714L224.775 274.063Z" fill="#CED6F2"/>
<path d="M234.197 259.105L234.143 259.642L252.808 261.525L252.862 260.988L234.197 259.105Z" fill="#CED6F2"/>
<path d="M233.999 261.234L233.945 261.772L252.611 263.651L252.665 263.114L233.999 261.234Z" fill="#CED6F2"/>
<path d="M233.767 263.367L233.713 263.904L252.378 265.784L252.432 265.246L233.767 263.367Z" fill="#CED6F2"/>
<path d="M233.55 265.493L233.496 266.03L252.161 267.913L252.215 267.376L233.55 265.493Z" fill="#CED6F2"/>
<path d="M226.438 258.61L225.765 265.277L232.163 265.922L232.835 259.256L226.438 258.61Z" stroke="#CED6F2" stroke-width="0.5" stroke-miterlimit="10"/>
<path d="M257.493 253.592C259.158 252.417 260.902 251.358 262.713 250.422C263.228 250.093 263.831 249.926 264.443 249.942C264.79 249.994 265.115 250.146 265.376 250.381C265.638 250.616 265.824 250.922 265.913 251.262C266.065 251.941 265.965 252.652 265.633 253.262C264.463 255.702 261.523 256.912 258.843 257.912C257.583 258.382 255.923 258.762 255.053 257.812C254.821 257.546 254.67 257.22 254.615 256.872C254.56 256.523 254.604 256.167 254.743 255.842C255.003 255.222 255.633 254.912 257.493 253.592Z" fill="#E8AA80"/>
<path d="M257.493 257.842C259.167 256.656 260.921 255.587 262.743 254.642C263.258 254.313 263.861 254.146 264.473 254.162C264.82 254.214 265.145 254.366 265.406 254.601C265.668 254.836 265.854 255.142 265.943 255.482C266.095 256.161 265.995 256.872 265.663 257.482C264.493 259.922 261.553 261.132 258.873 262.132C257.613 262.602 255.953 262.982 255.083 262.032C254.868 261.769 254.728 261.452 254.679 261.116C254.629 260.78 254.672 260.436 254.803 260.122C255.003 259.432 255.633 259.122 257.493 257.842Z" fill="#E8AA80"/>
<path d="M257.493 262.022C259.167 260.843 260.922 259.78 262.743 258.842C263.258 258.513 263.861 258.346 264.473 258.362C264.82 258.414 265.145 258.566 265.406 258.801C265.668 259.036 265.854 259.342 265.943 259.682C266.095 260.361 265.995 261.071 265.663 261.682C264.493 264.122 261.553 265.332 258.873 266.332C257.613 266.802 255.953 267.182 255.083 266.232C254.868 265.969 254.728 265.652 254.679 265.316C254.629 264.98 254.672 264.636 254.803 264.322C255.003 263.642 255.633 263.332 257.493 262.022Z" fill="#E8AA80"/>
<path d="M257.493 266.242C259.158 265.067 260.902 264.008 262.713 263.072C263.228 262.743 263.831 262.576 264.443 262.592C264.79 262.644 265.115 262.796 265.376 263.031C265.638 263.266 265.824 263.572 265.913 263.912C266.065 264.591 265.965 265.302 265.633 265.912C264.463 268.352 261.523 269.562 258.843 270.562C257.583 271.032 255.923 271.412 255.053 270.462C254.838 270.199 254.698 269.882 254.649 269.546C254.599 269.21 254.642 268.866 254.773 268.552C255.003 267.842 255.633 267.552 257.493 266.242Z" fill="#E8AA80"/>
<path d="M144.983 208.742L189.023 208.962L197.783 285.212L144.983 283.672" fill="#3D43AF"/>
<path d="M189.473 205.132C189.473 205.132 172.473 221.902 170.593 221.992C167.663 222.142 142.963 208.922 142.963 208.922C142.963 208.922 150.613 204.442 153.043 202.352C154.623 200.992 155.663 193.532 156.143 189.352C156.513 186.132 156.693 183.592 156.693 183.592L174.173 181.342C174.173 181.342 175.613 197.182 175.893 199.092C175.994 199.977 176.175 200.85 176.433 201.702C177.373 204.122 189.473 205.132 189.473 205.132Z" fill="#E8AA80"/>
<path d="M175.883 199.082C165.223 201.082 158.753 193.392 156.143 189.332C156.513 186.112 156.693 183.572 156.693 183.572L174.173 181.322C174.173 181.322 174.563 186.692 175.073 191.952C175.323 194.592 175.603 197.202 175.883 199.082Z" fill="#D68163"/>
<path d="M186.123 171.142C189.243 170.142 192.493 171.582 193.373 174.352C194.253 177.122 192.433 180.172 189.313 181.162C186.193 182.152 182.953 180.722 182.073 177.952C181.193 175.182 183.003 172.132 186.123 171.142Z" fill="#D68163"/>
<path d="M151.163 170.052C151.163 157.382 159.353 147.112 169.453 147.112C179.553 147.112 187.073 157.402 187.743 170.052C188.393 182.252 184.503 193.752 172.983 194.502C160.683 194.502 151.163 182.712 151.163 170.052Z" fill="#E8AA80"/>
<path d="M155.843 175.732C158.665 172.356 160.52 168.278 161.213 163.932C161.894 163.668 162.513 163.265 163.029 162.749C163.546 162.232 163.949 161.613 164.213 160.932C167.357 162.692 170.852 163.734 174.446 163.983C178.041 164.232 181.646 163.682 185.003 162.372C186.686 165.774 187.591 169.507 187.653 173.302C187.933 168.032 187.953 162.752 187.753 157.432C178.343 156.022 168.893 154.872 159.173 154.132C158.303 160.962 157.413 167.842 155.843 175.732Z" fill="#D68163"/>
<path d="M190.113 159.542C189.864 159.791 189.581 160.003 189.273 160.172C189.847 165.814 189.262 171.515 187.553 176.922C187.861 171.669 187.331 166.399 185.983 161.312C181.183 163.312 168.723 162.542 162.883 157.992C162.883 159.112 161.883 161.792 160.243 162.052C159.733 168.552 157.663 173.302 155.043 178.692C153.263 178.032 151.473 177.372 149.563 176.462C148.348 172.855 147.51 169.132 147.063 165.352C146.617 161.556 147.354 157.714 149.173 154.352C151.093 151.132 154.593 148.842 158.173 149.172C158.777 147.742 159.664 146.449 160.783 145.372C163.501 142.787 167.092 141.32 170.843 141.262C176.063 141.192 181.053 143.552 185.473 146.502C187.783 148.042 190.083 149.882 191.183 152.502C192.113 154.842 191.803 157.912 190.113 159.542Z" fill="#89512C"/>
<path d="M190.113 159.542C190.543 157.112 188.113 151.082 183.663 148.382C179.502 146.033 174.917 144.531 170.173 143.962C166.963 143.638 163.724 144.126 160.753 145.382C163.471 142.797 167.062 141.33 170.813 141.272C176.033 141.202 181.023 143.562 185.443 146.512C187.753 148.052 190.053 149.892 191.153 152.512C192.113 154.842 191.803 157.912 190.113 159.542Z" fill="#A16337"/>
<path d="M153.223 182.532C156.68 182.532 159.483 180.168 159.483 177.252C159.483 174.336 156.68 171.972 153.223 171.972C149.765 171.972 146.963 174.336 146.963 177.252C146.963 180.168 149.765 182.532 153.223 182.532Z" fill="#E8AA80"/>
<path d="M162.043 170.232C162.955 169.219 164.177 168.538 165.519 168.296C166.86 168.053 168.244 168.263 169.453 168.892" stroke="#89512C" stroke-miterlimit="10" stroke-linecap="round"/>
<path d="M185.293 169.212C183.353 167.212 181.103 167.212 179.433 168.692" stroke="#89512C" stroke-miterlimit="10" stroke-linecap="round"/>
<path d="M169.283 177.572C169.89 177.572 170.383 176.932 170.383 176.142C170.383 175.353 169.89 174.712 169.283 174.712C168.675 174.712 168.183 175.353 168.183 176.142C168.183 176.932 168.675 177.572 169.283 177.572Z" fill="#2A334F"/>
<path d="M182.363 176.422C182.97 176.422 183.463 175.782 183.463 174.992C183.463 174.202 182.97 173.562 182.363 173.562C181.755 173.562 181.263 174.202 181.263 174.992C181.263 175.782 181.755 176.422 182.363 176.422Z" fill="#2A334F"/>
<path d="M177.563 174.992C177.466 175.714 177.546 176.449 177.795 177.133C178.044 177.817 178.455 178.431 178.993 178.922C178.578 179.775 177.959 180.514 177.193 181.072" stroke="#CF5953" stroke-linecap="round" stroke-linejoin="round"/>
<path d="M175.973 185.842C175.973 185.842 173.253 186.462 169.473 183.792" stroke="#CF5953" stroke-linecap="round" stroke-linejoin="round"/>
<path d="M170.593 221.992L177.193 201.922L185.193 204.762L187.423 221.662C178.603 219.652 177.413 219.692 170.593 221.992Z" fill="#5766C9"/>
<path d="M146.433 205.782L153.333 201.392L170.603 222.002C164.433 221.612 157.083 222.182 152.933 225.052L146.433 205.782Z" fill="#5766C9"/>
<path d="M108.208 143.707L53.8735 110.853C52.5008 110.023 50.7152 110.463 49.8853 111.835L7.73406 181.547C6.90409 182.92 7.34401 184.705 8.71666 185.535L63.0515 218.389C64.4241 219.219 66.2097 218.779 67.0397 217.406L109.191 147.695C110.021 146.322 109.581 144.536 108.208 143.707Z" fill="#08183D"/>
<path d="M106.542 145.775L52.4575 113.252L11.5036 181.357L65.5881 213.88L106.542 145.775Z" stroke="#174F6B" stroke-width="0.75" stroke-miterlimit="10"/>
<path d="M69.5527 202.562C69.3527 202.722 69.1327 202.862 68.9127 203.012C68.2925 203.438 67.5912 203.731 66.8527 203.872C66.2833 203.992 65.6921 203.954 65.1427 203.762C63.7227 203.232 63.0227 201.622 62.5827 200.132C62.0835 198.415 61.7486 196.653 61.5827 194.872C61.5787 193.966 61.3881 193.071 61.0227 192.242C60.5423 191.505 59.8947 190.892 59.1327 190.452C57.3327 189.222 55.5427 188.532 54.1327 186.522C53.8465 186.009 53.6647 185.445 53.5977 184.861C53.5308 184.278 53.5801 183.687 53.7427 183.122C53.9337 182.204 54.2713 181.323 54.7427 180.512C54.8027 180.402 54.8627 180.302 54.9127 180.192C60.508 169.672 67.0164 159.664 74.3627 150.282C74.6808 149.901 75.0919 149.609 75.5562 149.434C76.0205 149.259 76.5222 149.207 77.0127 149.282C77.1515 149.301 77.2865 149.341 77.4127 149.402C77.7294 149.562 78.0062 149.791 78.2227 150.072C80.6454 152.713 82.0615 156.122 82.2227 159.702C82.4857 162.958 82.4086 166.232 81.9927 169.472C81.4477 174.204 80.5316 178.885 79.2527 183.472C79.0927 184.022 78.9227 184.582 78.7527 185.142C77.7616 188.089 76.603 190.977 75.2827 193.792L74.9227 194.562C73.6027 197.472 72.0527 200.562 69.5227 202.562H69.5527Z" fill="#174F6B"/>
<path d="M47.1327 175.472C47.0627 175.562 47.0127 175.652 46.9527 175.732C46.4451 176.53 45.8139 177.243 45.0827 177.842C44.6648 178.255 44.1675 178.579 43.6209 178.793C43.0742 179.008 42.4897 179.11 41.9027 179.092C39.4727 178.842 38.0427 177.582 36.1027 176.572C35.3578 176.108 34.5162 175.82 33.6427 175.732C32.7396 175.809 31.8599 176.06 31.0527 176.472C29.4057 177.169 27.6941 177.701 25.9427 178.062C24.4127 178.372 22.6727 178.512 21.5327 177.502C21.0791 177.012 20.744 176.425 20.5532 175.785C20.3625 175.146 20.3213 174.471 20.4327 173.812C20.4462 173.634 20.4695 173.458 20.5027 173.282C20.5027 173.202 20.5027 173.122 20.5027 173.062C21.0527 169.902 23.0827 167.062 25.0327 164.522L25.5427 163.842C27.7434 160.879 30.1706 158.09 32.8027 155.502L34.3327 154.092C37.3225 151.346 40.5039 148.817 43.8527 146.522C46.5224 144.635 49.3811 143.029 52.3827 141.732C55.6157 140.195 59.2855 139.841 62.7527 140.732C63.1119 140.794 63.4532 140.934 63.7527 141.142C64.0762 141.405 64.3218 141.75 64.4627 142.142C64.7007 142.788 64.7007 143.497 64.4627 144.142C59.6097 155.071 53.811 165.554 47.1327 175.472Z" fill="#174F6B"/>
<path d="M76.8627 161.382L77.4627 161.582C77.2782 161.476 77.0741 161.408 76.8627 161.382Z" fill="#F9ADA7"/>
<path d="M72.6327 189.062C72.3082 188.466 71.9406 187.895 71.5327 187.352C71.9327 187.482 72.3327 187.642 72.7427 187.742C73.0655 187.847 73.4096 187.867 73.7427 187.802C73.9294 187.758 74.1041 187.673 74.2544 187.554C74.4047 187.435 74.527 187.284 74.6127 187.112C74.393 187.338 74.1161 187.501 73.8114 187.582C73.5067 187.663 73.1856 187.659 72.8827 187.572C72.3127 187.432 71.8127 187.112 71.2527 186.952C70.6287 186.797 69.9838 186.743 69.3427 186.792C69.4948 186.683 69.6386 186.563 69.7727 186.432C70.4084 185.746 70.9073 184.945 71.2427 184.072C70.9163 184.436 70.6219 184.828 70.3627 185.242C69.9366 185.88 69.3855 186.424 68.7427 186.842C68.1438 186.871 67.5452 186.78 66.9827 186.572C65.964 184.656 64.3039 183.158 62.2927 182.342C61.79 182.002 61.3657 181.558 61.0484 181.041C60.7311 180.524 60.5279 179.944 60.4527 179.342C61.3284 179.783 62.2655 180.09 63.2327 180.252C63.8223 180.304 64.4034 180.428 64.9627 180.622C65.592 180.948 66.1496 181.397 66.6027 181.942C66.57 181.712 66.4912 181.49 66.3709 181.291C66.2507 181.092 66.0914 180.919 65.9027 180.782C65.5143 180.455 65.0878 180.177 64.6327 179.952C65.6296 179.692 66.6057 179.358 67.5527 178.952C68.0317 178.978 68.4942 179.136 68.8881 179.41C69.282 179.684 69.5918 180.062 69.7827 180.502C69.9024 180.928 70.088 181.333 70.3327 181.702C70.5588 181.919 70.8328 182.08 71.1327 182.172C71.5927 182.352 72.0627 182.512 72.5427 182.662C72.0673 182.561 71.6194 182.359 71.2294 182.069C70.8394 181.779 70.5165 181.408 70.2827 180.982C70.1827 180.712 70.1327 180.422 70.0227 180.152C69.6873 179.481 69.113 178.961 68.4127 178.692C68.6779 178.621 68.949 178.575 69.2227 178.552C69.8973 178.538 70.5705 178.619 71.2227 178.792C71.8005 178.892 72.3645 179.06 72.9027 179.292C72.1102 178.815 71.2226 178.518 70.3027 178.422L70.9827 178.092L71.2127 177.982L73.0227 177.112C73.3821 176.891 73.8021 176.79 74.2227 176.822C73.7127 176.582 73.0627 176.912 72.4927 177.192C71.3875 177.675 70.2344 178.041 69.0527 178.282C68.5919 178.305 68.1354 178.382 67.6927 178.512L66.6927 178.812C66.9827 178.572 67.2927 178.362 67.5927 178.112C68.9727 176.932 69.5927 174.972 70.8027 173.592C70.3043 174.048 69.8703 174.569 69.5127 175.142C69.2098 175.694 68.876 176.228 68.5127 176.742C67.6127 177.852 66.2527 178.342 65.1927 179.252C64.688 179.388 64.1729 179.482 63.6527 179.532C62.9827 179.332 62.2627 179.212 61.6527 178.962C61.1599 178.792 60.7144 178.508 60.3527 178.132C60.3527 177.962 60.3527 177.792 60.3527 177.632C60.1104 175.491 60.0636 173.332 60.2127 171.182C60.4171 169.04 60.8943 166.933 61.6327 164.912C62.0018 163.897 62.4464 162.911 62.9627 161.962C63.2127 161.492 63.4927 161.022 63.7827 160.572C63.8627 160.442 64.6827 159.382 64.6527 159.322C65.6975 162.011 67.445 164.37 69.7127 166.152C69.8636 166.918 69.8636 167.706 69.7127 168.472C69.7127 168.582 69.6527 168.702 69.6227 168.812C69.4627 169.082 69.2827 169.332 69.1027 169.592C68.5327 170.392 67.9427 171.172 67.4027 171.992C66.9724 172.432 66.4173 172.729 65.8127 172.842C65.3512 172.85 64.8905 172.884 64.4327 172.942C63.9448 173.091 63.49 173.332 63.0927 173.652C62.8966 173.759 62.7417 173.928 62.6527 174.132C62.8207 173.895 63.0423 173.701 63.2995 173.565C63.5566 173.43 63.842 173.357 64.1327 173.352C64.6627 173.352 65.1327 173.452 65.7227 173.412C66.0795 173.394 66.4248 173.28 66.7227 173.082V173.132C66.4202 173.604 66.194 174.12 66.0527 174.662C66.0114 175.262 65.8694 175.85 65.6327 176.402C65.9231 175.951 66.1518 175.464 66.3127 174.952C66.4029 174.559 66.5164 174.172 66.6527 173.792C66.9789 173.164 67.4006 172.591 67.9027 172.092C68.4121 171.512 68.8517 170.875 69.2127 170.192C68.9591 171.132 69.001 172.127 69.3327 173.042C69.1536 172.354 69.1744 171.629 69.3927 170.952C69.6227 170.132 69.9827 169.352 70.2427 168.542C70.4515 167.942 70.5366 167.306 70.4927 166.672C70.7627 166.852 71.0227 167.032 71.3027 167.192C72.0187 167.657 72.6148 168.284 73.0427 169.022C74.2027 171.192 72.1727 175.822 72.1727 175.822C72.8906 174.805 73.4097 173.662 73.7027 172.452C73.8984 172.735 74.1636 172.962 74.4727 173.112C74.8427 173.312 75.2627 173.442 75.6327 173.642C76.3861 174.054 76.9807 174.705 77.3227 175.492C77.2956 175.091 77.1758 174.702 76.9728 174.355C76.7698 174.008 76.489 173.712 76.1527 173.492C75.4785 173.089 74.8484 172.617 74.2727 172.082C74.0979 171.901 73.9737 171.677 73.9127 171.432C74.0782 170.594 74.0543 169.73 73.8427 168.902C73.7557 168.671 73.638 168.452 73.4927 168.252C74.3427 168.352 75.3527 167.952 76.1727 168.252C76.6722 168.466 77.1043 168.812 77.4227 169.252C77.3215 168.981 77.1627 168.735 76.9572 168.532C76.7518 168.328 76.5046 168.171 76.2327 168.072C75.6049 167.778 74.9251 167.612 74.2327 167.582C73.7727 167.582 73.2927 167.582 72.8427 167.512C72.5547 167.212 72.2438 166.934 71.9127 166.682C70.7411 165.964 69.7546 164.981 69.0327 163.812C70.1427 163.422 71.1627 162.462 72.2727 161.932C73.543 161.432 74.9138 161.24 76.2727 161.372C76.5336 161.377 76.794 161.397 77.0527 161.432C75.6304 160.825 74.0375 160.747 72.5627 161.212C71.4027 161.662 70.3527 162.622 69.1727 162.902C68.958 162.961 68.7345 162.982 68.5127 162.962C67.5654 160.725 66.7604 158.431 66.1027 156.092C66.1027 156.092 64.7527 155.272 63.8527 154.642C61.2089 156.225 58.0554 156.723 55.0527 156.032C54.6607 155.666 54.3238 155.245 54.0527 154.782C53.8527 154.442 53.6727 154.092 53.5027 153.782C53.8678 152.893 54.2887 152.028 54.7627 151.192C55.26 150.342 55.5479 149.386 55.6027 148.402C54.9112 149.976 54.0423 151.466 53.0127 152.842C53.0157 152.869 53.0157 152.896 53.0127 152.922C52.8927 152.652 52.7627 152.392 52.6327 152.142C52.142 151.125 51.4396 150.225 50.5727 149.502C49.7024 148.79 48.5951 148.433 47.4727 148.502C48.0795 148.477 48.6836 148.598 49.2337 148.856C49.7837 149.113 50.2636 149.5 50.6327 149.982C51.204 150.685 51.6659 151.471 52.0027 152.312C50.7427 152.072 49.3727 152.252 48.1927 151.812C47.7627 151.652 47.3727 151.422 46.9327 151.292C46.3779 151.128 45.7875 151.128 45.2327 151.292C46.3827 151.122 47.2327 152.122 48.2327 152.502C48.973 152.695 49.7387 152.773 50.5027 152.732C51.1441 152.71 51.7807 152.851 52.3527 153.142C52.3566 153.182 52.3566 153.222 52.3527 153.262C52.6645 154.085 53.0217 154.889 53.4227 155.672C51.6427 155.372 48.5527 154.992 46.6027 155.672C46.136 155.848 45.6845 156.062 45.2527 156.312C44.3727 156.162 43.5327 155.892 42.6827 155.662C42.4575 155.434 42.2534 155.187 42.0727 154.922C41.5363 154.048 40.7535 153.352 39.8227 152.922C40.2627 153.362 40.7027 153.792 41.1327 154.232C41.3202 154.407 41.4878 154.601 41.6327 154.812C41.7672 155.047 41.8842 155.291 41.9827 155.542L41.6427 155.462C40.931 155.301 40.1937 155.29 39.4775 155.43C38.7613 155.569 38.082 155.856 37.4827 156.272C38.17 155.822 39.0032 155.65 39.8127 155.792C40.6593 155.988 41.4787 156.287 42.2527 156.682C42.7837 156.934 43.3503 157.103 43.9327 157.182C41.9327 158.502 40.1227 160.102 38.6127 160.372C39.8831 160.104 41.1278 159.726 42.3327 159.242C44.5227 158.422 46.4927 157.032 48.7227 156.722C48.0927 157.882 47.7227 159.182 47.0927 160.352C46.6916 161.077 46.2011 161.749 45.6327 162.352C44.9197 162.385 44.2053 162.338 43.5027 162.212C42.1227 162.162 40.6327 162.982 39.3327 162.632C39.807 162.843 40.3148 162.968 40.8327 163.002C41.1651 163.037 41.5003 163.037 41.8327 163.002C42.1627 163.002 42.4827 162.882 42.8327 162.842C43.568 162.759 44.3122 162.803 45.0327 162.972C44.1889 163.746 43.2825 164.448 42.3227 165.072C43.8106 164.551 45.1374 163.651 46.1727 162.462C46.4781 162.114 46.7652 161.75 47.0327 161.372C47.1601 161.728 47.1601 162.117 47.0327 162.472C46.8377 163.394 46.5286 164.287 46.1127 165.132C46.6719 164.378 47.0609 163.511 47.2527 162.592C47.3953 161.933 47.4889 161.265 47.5327 160.592C48.3508 159.193 49.3127 157.882 50.4027 156.682C51.6951 156.71 52.9815 156.868 54.2427 157.152C56.3898 157.771 58.6085 158.107 60.8427 158.152C60.7627 158.152 59.7627 160.092 59.6327 160.292C59.1539 161.052 58.6365 161.786 58.0827 162.492C55.938 165.254 53.2663 167.561 50.2227 169.282C48.9027 170.022 47.3427 171.012 45.9227 170.902C44.8435 170.787 43.7784 170.566 42.7427 170.242C41.988 168.302 40.5165 166.727 38.6327 165.842C38.5427 165.652 38.4627 165.442 38.3827 165.242C37.5627 163.332 35.0927 162.862 34.3827 160.892C34.6927 162.302 35.8227 163.172 36.8327 164.032C37.0492 164.202 37.2382 164.404 37.3927 164.632C37.5327 164.882 37.6127 165.202 37.7427 165.482C36.776 165.167 35.7566 165.044 34.7427 165.122C36.3137 165.273 37.8039 165.889 39.0227 166.892C37.2387 167.422 35.349 167.487 33.5327 167.082C35.0324 167.671 36.664 167.84 38.2527 167.572C38.686 167.545 39.1133 167.457 39.5227 167.312C40.3949 168.1 41.1613 168.997 41.8027 169.982C41.3327 169.862 40.8627 169.762 40.3727 169.682C38.8193 169.479 37.2461 169.479 35.6927 169.682C35.1591 169.64 34.6424 169.476 34.1827 169.202C33.695 168.898 33.1833 168.633 32.6527 168.412C32.2293 168.06 31.8706 167.637 31.5927 167.162C31.404 166.739 31.1656 166.339 30.8827 165.972C30.5527 165.602 30.0927 165.392 29.7427 165.032C30.1742 165.426 30.5691 165.857 30.9227 166.322C31.0626 166.495 31.1771 166.687 31.2627 166.892C31.4327 167.332 31.4227 167.892 31.7227 168.232C30.3727 168.172 28.8727 168.722 27.6427 168.232C27.9715 168.468 28.3463 168.631 28.7426 168.712C29.1389 168.793 29.5478 168.79 29.9427 168.702C30.7465 168.527 31.5788 168.527 32.3827 168.702C32.7312 168.841 33.066 169.011 33.3827 169.212C33.8079 169.452 34.257 169.646 34.7227 169.792C32.7842 170.08 30.9578 170.881 29.4327 172.112C32.094 170.556 35.1703 169.858 38.2427 170.112C38.0726 170.269 37.9123 170.436 37.7627 170.612C37.6598 170.742 37.5461 170.862 37.4227 170.972C37.2438 171.106 37.0446 171.211 36.8327 171.282C35.8664 171.724 35.0348 172.414 34.4227 173.282L35.5227 172.442C35.8245 172.181 36.161 171.962 36.5227 171.792C36.8127 171.682 37.1027 171.642 37.3727 171.512C37.9627 171.232 38.3727 170.572 38.9327 170.192C39.4627 170.237 39.988 170.328 40.5027 170.462C41.5027 170.742 42.4327 171.132 43.4327 171.462C41.7945 172.401 39.9923 173.019 38.1227 173.282C40.2587 173.502 42.3996 172.914 44.1227 171.632C44.5922 171.746 45.0706 171.82 45.5527 171.852C47.09 171.92 48.6263 171.699 50.0827 171.202C53.352 170.093 56.2867 168.173 58.6127 165.622C59.1531 165.05 59.6542 164.442 60.1127 163.802C59.8597 164.292 59.6714 164.813 59.5527 165.352C59.3727 165.902 59.2127 166.452 59.0827 167.002C58.8006 168.109 58.6 169.236 58.4827 170.372C58.2422 172.577 58.3095 174.805 58.6827 176.992C58.8227 178.444 59.2547 179.852 59.9527 181.132C59.7069 182.105 59.6808 183.12 59.8763 184.105C60.0717 185.089 60.4838 186.017 61.0827 186.822C60.3993 185.249 60.2043 183.507 60.5227 181.822C60.6876 181.982 60.8648 182.13 61.0527 182.262C62.3399 182.906 63.5738 183.652 64.7427 184.492C64.8042 184.973 64.821 185.458 64.7927 185.942C64.6045 186.31 64.3618 186.647 64.0727 186.942C63.8227 187.192 63.5427 187.412 63.2927 187.652C62.9877 187.948 62.7252 188.284 62.5127 188.652C63.0516 188.232 63.5658 187.782 64.0527 187.302C64.2671 187.11 64.4645 186.899 64.6427 186.672C64.4403 187.2 64.3026 187.751 64.2327 188.312C64.262 188.735 64.3323 189.153 64.4427 189.562C64.4943 189.777 64.4995 190.001 64.4582 190.218C64.4168 190.435 64.3297 190.641 64.2027 190.822C64.5238 190.461 64.7293 190.012 64.7927 189.532C64.7927 189.102 64.5427 188.752 64.5627 188.322C64.624 187.971 64.7458 187.632 64.9227 187.322C65.2392 186.632 65.3997 185.881 65.3927 185.122C66.8303 186.84 67.7801 188.912 68.1427 191.122C68.0992 190.491 68.0191 189.864 67.9027 189.242L69.3327 189.962C69.8474 190.278 70.4303 190.467 71.0327 190.512C69.7956 190.142 68.669 189.472 67.7527 188.562C67.6121 188.016 67.4316 187.482 67.2127 186.962C67.7885 187.078 68.3756 187.128 68.9627 187.112C69.3727 187.112 69.7927 187.012 70.1927 187.022C70.3503 187.028 70.5073 187.045 70.6627 187.072C71.2271 187.517 71.7195 188.047 72.1227 188.642C72.3328 188.996 72.5737 189.331 72.8427 189.642C72.9785 189.793 73.148 189.91 73.3374 189.983C73.5268 190.056 73.7308 190.083 73.9327 190.062C73.4185 189.855 72.972 189.508 72.6427 189.062H72.6327Z" fill="#4B90A0"/>
<path d="M77.8527 135.462C78.1904 135.676 78.4295 136.015 78.5176 136.405C78.6057 136.795 78.5356 137.204 78.3227 137.542L78.1627 137.812C78.0649 137.985 77.9341 138.137 77.7777 138.259C77.6212 138.381 77.4422 138.471 77.2509 138.524C77.0595 138.577 76.8596 138.592 76.6626 138.568C76.4656 138.543 76.2753 138.48 76.1027 138.382C76.2706 138.486 76.4161 138.623 76.5308 138.783C76.6455 138.944 76.7271 139.126 76.7709 139.319C76.8146 139.511 76.8196 139.711 76.7856 139.905C76.7515 140.1 76.6792 140.286 76.5727 140.452L76.4127 140.722C76.2136 141.07 75.8849 141.324 75.4986 141.429C75.1123 141.534 74.7001 141.481 74.3527 141.282C74.6904 141.496 74.9295 141.835 75.0176 142.225C75.1057 142.615 75.0356 143.024 74.8227 143.362L74.6627 143.632C74.4618 143.978 74.133 144.23 73.7475 144.335C73.362 144.44 72.9507 144.388 72.6027 144.192C72.7706 144.296 72.9161 144.433 73.0308 144.593C73.1455 144.754 73.2271 144.936 73.2709 145.129C73.3146 145.321 73.3196 145.521 73.2856 145.715C73.2515 145.91 73.1792 146.096 73.0727 146.262L72.9127 146.542C72.7142 146.874 72.3963 147.117 72.0242 147.221C71.6522 147.325 71.2544 147.282 70.9127 147.102C71.0795 147.207 71.2241 147.344 71.338 147.505C71.452 147.666 71.5331 147.848 71.5768 148.04C71.6204 148.232 71.6257 148.431 71.5924 148.625C71.5591 148.82 71.4878 149.005 71.3827 149.172L71.2127 149.452C71.0142 149.784 70.6963 150.027 70.3242 150.131C69.9522 150.235 69.5544 150.192 69.2127 150.012C69.3797 150.117 69.5243 150.254 69.6381 150.415C69.7518 150.576 69.8324 150.759 69.8752 150.951C69.918 151.144 69.9221 151.343 69.8874 151.537C69.8526 151.731 69.7796 151.916 69.6727 152.082L69.5126 152.362C69.3143 152.694 68.9956 152.936 68.623 153.039C68.2504 153.141 67.8527 153.096 67.5126 152.912C67.8483 153.128 68.0857 153.467 68.1736 153.856C68.2615 154.245 68.1929 154.653 67.9827 154.992L67.8127 155.262C67.6158 155.595 67.2986 155.84 66.9264 155.946C66.5542 156.052 66.1556 156.012 65.8127 155.832L63.8127 154.642C63.4749 154.428 63.2358 154.089 63.1477 153.699C63.0596 153.309 63.1297 152.901 63.3427 152.562L63.5027 152.292C63.7017 151.945 64.0304 151.691 64.4167 151.586C64.803 151.481 65.2152 151.533 65.5627 151.732C65.2249 151.518 64.9858 151.179 64.8977 150.789C64.8096 150.399 64.8797 149.991 65.0927 149.652L65.2527 149.382C65.4535 149.037 65.7823 148.785 66.1678 148.68C66.5533 148.575 66.9646 148.626 67.3127 148.822C67.1458 148.717 67.0012 148.58 66.8873 148.42C66.7733 148.259 66.6922 148.077 66.6486 147.885C66.6049 147.692 66.5996 147.493 66.6329 147.299C66.6662 147.105 66.7375 146.919 66.8427 146.752L67.0027 146.472C67.2035 146.127 67.5323 145.875 67.9178 145.77C68.3033 145.665 68.7146 145.716 69.0627 145.912C68.8948 145.808 68.7492 145.672 68.6345 145.511C68.5198 145.35 68.4382 145.168 68.3945 144.976C68.3507 144.783 68.3457 144.584 68.3797 144.389C68.4138 144.194 68.4861 144.009 68.5927 143.842L68.7527 143.562C68.9527 143.232 69.2714 142.992 69.6433 142.889C70.0152 142.787 70.4121 142.831 70.7527 143.012C70.417 142.797 70.1796 142.458 70.0917 142.068C70.0038 141.679 70.0724 141.271 70.2827 140.932L70.4527 140.662C70.6494 140.329 70.9673 140.084 71.3401 139.98C71.7128 139.876 72.1114 139.919 72.4527 140.102C72.2852 139.996 72.1404 139.859 72.0266 139.697C71.9127 139.534 71.8321 139.351 71.7893 139.158C71.7465 138.965 71.7425 138.765 71.7774 138.57C71.8123 138.375 71.8855 138.189 71.9927 138.022L72.1527 137.752C72.3494 137.419 72.6673 137.174 73.0401 137.07C73.4128 136.966 73.8114 137.01 74.1527 137.192C73.815 136.978 73.5758 136.639 73.4877 136.249C73.3996 135.859 73.4697 135.451 73.6827 135.112L73.8527 134.842C74.0494 134.509 74.3673 134.264 74.7401 134.16C75.1128 134.056 75.5114 134.1 75.8527 134.282C75.515 134.068 75.2758 133.729 75.1877 133.339C75.0996 132.949 75.1697 132.541 75.3827 132.202L75.5427 131.932C75.7435 131.587 76.0723 131.335 76.4578 131.23C76.8433 131.125 77.2546 131.176 77.6027 131.372L79.6027 132.562C79.9404 132.776 80.1795 133.115 80.2676 133.505C80.3557 133.895 80.2856 134.304 80.0727 134.642L79.9027 134.912C79.8062 135.085 79.6761 135.237 79.52 135.358C79.3639 135.48 79.185 135.569 78.9939 135.62C78.8027 135.672 78.6032 135.684 78.4072 135.657C78.2112 135.63 78.0226 135.564 77.8527 135.462Z" fill="#4B90A0"/>
<path d="M104.394 146.189L93.6217 139.711L90.5657 144.793L101.338 151.271L104.394 146.189Z" fill="#4B90A0"/>
<path d="M84.7427 198.312C85.5829 192.95 85.0319 187.461 83.1427 182.372C82.7927 181.432 82.1427 180.372 81.1427 180.372C80.1427 180.372 79.5827 181.742 79.4627 182.812C79.0762 185.672 79.3638 188.583 80.3027 191.312C78.4157 193.919 77.493 197.1 77.6927 200.312C80.0427 199.842 82.4127 199.602 84.7427 198.312Z" fill="#E8AA80"/>
<path d="M84.3427 197.962L87.9827 206.692L77.1727 216.732L74.7227 207.052L84.3427 197.962Z" fill="#E8AA80"/>
<path d="M81.8827 188.112C82.8562 190.1 83.9551 192.024 85.1727 193.872C85.1727 193.872 84.9027 200.252 83.8627 202.532C82.8582 204.508 81.205 206.078 79.1804 206.979C77.1557 207.88 74.8828 208.058 72.7427 207.482C75.6727 201.032 78.6127 194.562 81.8827 188.112Z" fill="#E8AA80"/>
<path d="M147.333 225.222L143.743 205.512C143.743 205.512 132.463 209.602 129.623 211.962C126.783 214.322 107.953 234.642 105.953 234.152C103.063 233.452 88.0027 201.732 88.0027 201.732L72.7427 217.192C72.7427 217.192 89.5127 266.452 98.7427 267.322C107.973 268.192 143.033 248.162 143.033 248.162L147.333 225.222Z" fill="#FEFFFE"/>
<path d="M130.963 253.732C135.277 243.497 136.348 232.185 134.033 221.322" stroke="#E1E8F5" stroke-miterlimit="10" stroke-linecap="round"/>
<path d="M133.673 252.672C137.378 249.215 139.812 244.611 140.583 239.602" stroke="#E1E8F5" stroke-miterlimit="10" stroke-linecap="round"/>
<path d="M71.0227 217.652L88.4227 200.182L93.7127 208.462L74.4527 227.112L71.0227 217.652Z" fill="#E1E8F5"/>
<path d="M132.273 214.752C133.273 208.942 152.073 201.932 152.073 201.932C156.804 211.779 159.304 222.548 159.393 233.472C159.393 251.212 159.323 374.222 159.323 374.222L123.193 371.762C123.193 371.762 127.383 244.152 132.273 214.752Z" fill="#FEFFFE"/>
<path d="M159.393 253.982C159.393 253.982 160.313 236.472 159.393 225.042C158.763 217.212 152.393 201.382 152.393 201.382C149.857 202.175 147.364 203.096 144.923 204.142C142.233 205.402 139.923 227.972 140.173 228.522C140.423 229.072 151.173 234.642 151.173 234.642C151.173 234.642 144.103 241.942 144.173 242.742C144.243 243.542 159.393 253.982 159.393 253.982Z" fill="#E1E8F5"/>
<path d="M153.169 342.603L130.653 345.403L131.186 349.69L153.702 346.89L153.169 342.603Z" fill="#E1E8F5"/>
<path d="M178.093 201.752C181.105 210.751 183.117 220.053 184.093 229.492C185.453 241.992 179.913 374.212 179.913 374.212L209.123 370.572C209.123 370.572 207.433 220.172 200.223 210.382C196.543 205.412 178.093 201.752 178.093 201.752Z" fill="#FEFFFE"/>
<path d="M183.833 253.252C183.833 253.252 183.933 233.362 182.833 225.582C181.733 217.802 177.363 201.732 177.363 201.732C177.363 201.732 184.733 202.152 187.363 203.412C189.993 204.672 198.683 224.622 198.443 225.162C198.203 225.702 188.293 234.162 188.293 234.162C188.293 234.162 195.623 241.462 195.563 242.262C195.503 243.062 183.833 253.252 183.833 253.252Z" fill="#E1E8F5"/>
<path d="M205.703 346.852L205.463 342.592L187.353 341.512L187.593 345.782L205.703 346.852Z" fill="#E1E8F5"/>
<path d="M433.423 290.842L425.643 304.122L419.863 295.322L417.203 291.282L416.313 289.922L425.543 284.102L426.553 284.972L427.743 285.982L433.423 290.842Z" fill="#E8AA80"/>
<path d="M416.073 278.112C416.073 284.872 410.903 290.362 404.523 290.362C402.996 290.365 401.487 290.044 400.093 289.422H400.033C397.896 288.419 396.094 286.822 394.842 284.821C393.59 282.821 392.941 280.502 392.973 278.142C392.973 271.372 398.143 265.882 404.523 265.882C406.482 265.884 408.404 266.409 410.093 267.402C411.936 268.512 413.457 270.084 414.506 271.962C415.555 273.841 416.095 275.961 416.073 278.112Z" fill="#7BCCE0"/>
<path d="M416.073 278.112C416.073 284.872 410.903 290.362 404.523 290.362C402.996 290.365 401.487 290.044 400.093 289.422H400.033C398.102 288.338 396.499 286.753 395.392 284.835C394.286 282.917 393.716 280.736 393.743 278.522C393.743 271.762 398.903 266.282 405.283 266.282C406.931 266.282 408.558 266.655 410.043 267.372C411.898 268.48 413.431 270.054 414.489 271.938C415.547 273.823 416.093 275.951 416.073 278.112Z" fill="#51A9C9"/>
<path d="M393.753 275.852L403.693 277.982L403.733 280.262L393.783 281.572L393.753 275.852Z" fill="#7BCCE0"/>
<path d="M394.733 272.822L403.363 275.962L403.993 275.032L396.923 269.422L394.733 272.822Z" fill="#7BCCE0"/>
<path d="M405.443 273.232C404.129 273.325 402.898 273.905 401.989 274.857C401.08 275.81 400.559 277.067 400.527 278.384C400.496 279.7 400.957 280.981 401.82 281.975C402.682 282.97 403.885 283.607 405.193 283.762H410.193L411.073 273.202L405.443 273.232Z" fill="#2C7FA3"/>
<path d="M409.793 283.792C412.709 283.792 415.073 281.428 415.073 278.512C415.073 275.596 412.709 273.232 409.793 273.232C406.877 273.232 404.513 275.596 404.513 278.512C404.513 281.428 406.877 283.792 409.793 283.792Z" fill="#6EB2C4"/>
<path d="M417.423 291.242C414.973 291.922 408.093 289.162 406.423 287.362C404.573 285.362 403.703 283.112 405.423 282.442C406.273 282.112 407.773 283.052 410.903 282.662C411.953 278.232 409.283 274.982 408.903 273.082C408.423 270.502 413.623 269.832 414.623 272.022C416.493 270.702 420.163 271.652 420.843 273.742C421.384 273.576 421.957 273.545 422.513 273.651C423.069 273.757 423.591 273.998 424.033 274.352C424.443 274.698 424.748 275.153 424.913 275.664C425.077 276.175 425.095 276.722 424.963 277.242C426.743 277.472 427.563 278.172 427.583 279.942C427.583 282.782 425.773 288.402 422.933 289.472C421.133 290.173 419.293 290.764 417.423 291.242Z" fill="#E8AA80"/>
<path d="M433.423 290.842L425.643 304.122L419.863 295.332C421.866 291.739 424.541 288.565 427.743 285.982L433.423 290.842Z" fill="#D68163"/>
<path d="M480.053 275.102L470.983 259.262C467.381 261.239 464.363 264.129 462.233 267.642C458.393 273.722 451.413 297.522 447.723 297.962C444.033 298.402 428.913 283.462 428.913 283.462C428.913 283.462 420.083 295.612 420.083 304.892C420.083 307.412 443.693 326.892 448.583 326.892C459.453 326.892 472.203 311.242 472.203 311.242L480.053 275.102Z" fill="#E1E8F5"/>
<path d="M479.063 256.072C479.063 256.072 496.143 272.942 498.063 273.072C501.003 273.222 525.853 259.922 525.853 259.922C525.853 259.922 518.153 255.412 515.713 253.312C514.123 251.942 513.073 244.432 512.603 240.232C512.233 236.992 512.053 234.442 512.053 234.442L494.473 232.182C494.473 232.182 493.023 248.122 492.743 250.042C492.641 250.93 492.46 251.807 492.203 252.662C491.233 255.062 479.063 256.072 479.063 256.072Z" fill="#E8AA80"/>
<path d="M492.743 249.992C503.473 251.992 509.973 244.272 512.603 240.192C512.233 236.952 512.053 234.402 512.053 234.402L494.473 232.142C494.473 232.142 494.083 237.542 493.573 242.832C493.293 245.482 493.013 248.102 492.743 249.992Z" fill="#D68163"/>
<path d="M475.323 226.572C475.883 224.202 478.883 222.882 482.023 223.622C485.163 224.362 487.273 226.872 486.713 229.242C486.153 231.612 483.163 232.932 480.013 232.192C476.863 231.452 474.743 228.932 475.323 226.572Z" fill="#D68163"/>
<path d="M477.303 228.702C477.215 228.227 477.31 227.736 477.567 227.327C477.825 226.917 478.226 226.62 478.693 226.492C478.772 226.455 478.856 226.428 478.943 226.412C479.505 226.266 480.101 226.337 480.613 226.612C480.851 227.473 480.985 228.359 481.013 229.252C480.702 229.611 480.285 229.863 479.823 229.972L479.503 230.032C479.038 230.104 478.563 230.011 478.161 229.768C477.758 229.524 477.455 229.147 477.303 228.702Z" fill="#1C5180"/>
<path d="M515.743 221.332C515.743 208.592 509.363 197.722 499.203 197.722C489.043 197.722 480.813 201.512 480.813 220.792C480.813 233.082 484.073 244.632 495.663 245.382C508.023 245.382 515.743 234.072 515.743 221.332Z" fill="#E8AA80"/>
<path d="M513.363 226.932C510.573 222.752 508.713 217.512 506.993 212.832C499.256 213.906 491.397 213.737 483.713 212.332C482.441 215.932 481.389 219.605 480.563 223.332C479.468 217.617 479.952 211.712 481.963 206.252C492.289 203.905 502.867 202.854 513.453 203.122C513.603 210.462 513.203 218.592 513.363 226.932Z" fill="#D68163"/>
<path d="M518.363 200.572C518.047 200.233 517.661 199.967 517.233 199.792C512.073 197.112 491.323 190.622 488.613 191.942C485.613 193.422 488.773 196.172 488.773 196.172C488.773 196.172 478.773 195.092 477.023 197.422C475.273 199.752 478.753 204.362 478.753 204.362C478.753 204.362 476.163 204.022 475.423 205.922C475.173 206.552 475.713 209.042 476.553 212.092C477.693 216.282 479.383 221.512 480.353 224.422C480.611 223.914 480.902 223.423 481.223 222.952C481.5 218.89 482.007 214.847 482.743 210.842C491.003 212.022 507.213 210.632 507.213 210.632L513.113 227.902H516.913C516.913 227.902 520.643 204.372 518.363 200.572Z" fill="#1D0100"/>
<path d="M517.233 199.782C510.903 197.626 504.374 196.109 497.743 195.252C496.82 195.082 495.875 195.082 494.953 195.252C494.491 195.341 494.059 195.544 493.695 195.843C493.332 196.142 493.049 196.526 492.873 196.962C492.583 197.852 493.103 198.962 494.223 199.962C491.223 199.212 488.113 198.462 485.033 198.832C484.164 198.868 483.315 199.102 482.551 199.516C481.786 199.93 481.127 200.514 480.623 201.222C480.082 202.256 479.94 203.451 480.223 204.582C480.419 205.703 480.982 206.726 481.823 207.492C480.073 206.652 477.893 207.952 477.093 209.722C476.766 210.474 476.589 211.283 476.573 212.102C475.733 209.102 475.193 206.562 475.443 205.932C476.183 204.032 478.773 204.372 478.773 204.372C478.773 204.372 475.283 199.752 477.043 197.432C478.803 195.112 488.793 196.182 488.793 196.182C488.793 196.182 485.593 193.432 488.633 191.952C491.323 190.612 512.063 197.102 517.233 199.782Z" fill="#360F0A"/>
<path d="M506.653 220.972C505.736 219.953 504.507 219.267 503.159 219.023C501.81 218.778 500.418 218.989 499.203 219.622" stroke="#1D0100" stroke-miterlimit="10" stroke-linecap="round"/>
<path d="M483.263 219.942C485.263 217.942 487.483 217.942 489.153 219.422" stroke="#1D0100" stroke-miterlimit="10" stroke-linecap="round"/>
<path d="M497.233 228.362C497.84 228.362 498.333 227.718 498.333 226.922C498.333 226.127 497.84 225.482 497.233 225.482C496.625 225.482 496.133 226.127 496.133 226.922C496.133 227.718 496.625 228.362 497.233 228.362Z" fill="#262E4A"/>
<path d="M483.763 228.362C484.37 228.362 484.863 227.718 484.863 226.922C484.863 226.127 484.37 225.482 483.763 225.482C483.155 225.482 482.663 226.127 482.663 226.922C482.663 227.718 483.155 228.362 483.763 228.362Z" fill="#262E4A"/>
<path d="M491.243 227.662C491.275 228.394 491.13 229.122 490.82 229.786C490.51 230.449 490.045 231.028 489.463 231.472C489.808 232.365 490.364 233.161 491.083 233.792" stroke="#CF5953" stroke-linecap="round" stroke-linejoin="round"/>
<path d="M492.743 236.992C492.743 236.992 495.983 237.432 500.113 233.992" stroke="#CF5953" stroke-linecap="round" stroke-linejoin="round"/>
<path d="M500.123 231.952C503.144 231.952 505.593 229.503 505.593 226.482C505.593 223.461 503.144 221.012 500.123 221.012C497.102 221.012 494.653 223.461 494.653 226.482C494.653 229.503 497.102 231.952 500.123 231.952Z" stroke="#6C3F91" stroke-miterlimit="10"/>
<path d="M484.583 221.012C485.685 220.914 486.791 221.15 487.757 221.691C488.722 222.232 489.501 223.052 489.992 224.044C490.484 225.036 490.663 226.153 490.509 227.248C490.354 228.344 489.872 229.368 489.125 230.184C488.378 231.001 487.402 231.573 486.325 231.826C485.247 232.078 484.119 231.999 483.087 231.599C482.055 231.198 481.169 230.496 480.543 229.583C479.918 228.67 479.583 227.589 479.583 226.482C479.526 225.095 480.019 223.742 480.956 222.717C481.892 221.693 483.196 221.08 484.583 221.012V221.012Z" stroke="#6C3F91" stroke-miterlimit="10"/>
<path d="M495.043 224.522C494.197 224.077 493.26 223.832 492.305 223.806C491.35 223.78 490.401 223.974 489.533 224.372" stroke="#6C3F91" stroke-miterlimit="10"/>
<path d="M505.473 225.062C508.153 223.982 513.333 223.062 516.473 223.592" stroke="#6C3F91" stroke-miterlimit="10"/>
<path d="M514.413 223.182C517.563 222.182 520.733 223.382 521.493 225.822C522.253 228.262 520.303 231.032 517.153 232.012C514.003 232.992 510.823 231.812 510.073 229.372C509.323 226.932 511.253 224.162 514.413 223.182Z" fill="#E8AA80"/>
<path d="M517.073 227.652C517.101 227.987 517.053 228.325 516.932 228.638C516.811 228.952 516.619 229.234 516.373 229.462C515.896 229.868 515.313 230.128 514.693 230.212C514.604 229.774 514.554 229.329 514.543 228.882C514.522 227.989 514.606 227.096 514.793 226.222C514.873 225.806 514.98 225.395 515.113 224.992C515.638 225.121 516.108 225.415 516.453 225.832C516.853 226.354 517.071 226.994 517.073 227.652Z" fill="#D68163"/>
<path d="M518.263 227.652C518.231 228.134 518.02 228.586 517.672 228.921C517.325 229.255 516.865 229.448 516.383 229.462C516.296 229.472 516.209 229.472 516.123 229.462C515.539 229.47 514.974 229.256 514.543 228.862C514.522 227.969 514.606 227.076 514.793 226.202C515.182 225.93 515.647 225.787 516.123 225.792H516.453C516.926 225.836 517.369 226.048 517.7 226.389C518.032 226.73 518.231 227.178 518.263 227.652Z" fill="#1C5180"/>
<path d="M524.993 258.352L517.853 253.482L498.743 272.242C496.203 268.732 491.263 262.962 490.333 253.882L479.253 256.882L475.703 338.962L524.363 337.522L524.993 258.352Z" fill="#53AEDB"/>
<path d="M498.653 272.252C505.143 265.762 512.843 256.722 515.243 252.252L518.683 253.442L515.743 272.312C511.623 269.842 505.493 269.312 498.653 272.252Z" fill="#78C8E3"/>
<path d="M498.653 272.252C496.653 268.392 492.563 258.792 491.333 253.102L485.663 255.052L485.173 271.362C485.173 271.362 488.883 269.562 491.933 270.162C494.225 270.678 496.472 271.377 498.653 272.252Z" fill="#78C8E3"/>
<path d="M464.513 416.722L533.693 417.752L536.763 367.142L465.093 366.842L464.513 416.722Z" fill="#A1A7BF"/>
<path d="M490.613 252.612C490.613 252.612 486.433 268.912 483.723 282.672C480.793 297.572 478.493 312.162 475.643 337.532C471.293 376.282 475.643 421.742 475.643 421.742L459.403 422.432C459.403 422.432 461.103 271.152 468.353 261.312C472.053 256.292 490.613 252.612 490.613 252.612Z" fill="#FEFFFE"/>
<path d="M491.283 252.302C491.283 252.302 485.823 276.422 484.113 285.232C482.403 294.042 479.993 304.902 479.993 304.902C479.993 304.902 470.143 292.642 471.153 290.652C472.163 288.662 478.513 284.172 478.513 284.172C478.513 284.172 469.383 277.572 470.623 275.752C471.863 273.932 479.353 256.332 482.623 254.102C484.413 252.842 491.283 252.302 491.283 252.302Z" fill="#E1E8F5"/>
<path d="M524.993 440.212H473.113V445.422H524.993V440.212Z" fill="#89512C"/>
<path d="M479.063 390.032C479.068 390.119 479.068 390.206 479.063 390.292L478.593 396.952L474.663 453.232C474.569 454.183 474.117 455.062 473.399 455.691C472.681 456.321 471.75 456.653 470.796 456.621C469.841 456.59 468.934 456.196 468.26 455.52C467.585 454.844 467.193 453.937 467.163 452.982C467.158 452.896 467.158 452.809 467.163 452.722L471.073 396.942L471.573 389.782C471.643 388.816 472.085 387.914 472.806 387.266C473.526 386.619 474.469 386.275 475.438 386.307C476.406 386.339 477.325 386.745 478 387.44C478.676 388.134 479.057 389.063 479.063 390.032Z" fill="#5E2C1F"/>
<path d="M479.063 390.032C479.068 390.119 479.068 390.206 479.063 390.292L478.593 396.952H471.083L471.583 389.792C471.653 388.827 472.094 387.925 472.813 387.277C473.533 386.63 474.475 386.285 475.443 386.316C476.411 386.347 477.329 386.751 478.005 387.444C478.682 388.136 479.064 389.064 479.073 390.032H479.063Z" fill="#451E18"/>
<path d="M503.743 389.962V453.042C503.744 453.527 503.647 454.008 503.458 454.455C503.269 454.901 502.992 455.305 502.643 455.642C501.936 456.336 500.984 456.724 499.993 456.722C499.505 456.728 499.02 456.636 498.568 456.454C498.115 456.272 497.702 456.002 497.354 455.66C497.006 455.319 496.728 454.911 496.537 454.462C496.347 454.013 496.247 453.53 496.243 453.042V389.962C496.243 389.477 496.341 388.997 496.53 388.551C496.718 388.104 496.995 387.7 497.343 387.362C498.051 386.67 499.002 386.282 499.993 386.282C500.978 386.274 501.925 386.657 502.628 387.347C503.331 388.037 503.732 388.977 503.743 389.962Z" fill="#5E2C1F"/>
<path d="M503.743 389.962V396.962H496.243V389.962C496.243 389.477 496.341 388.997 496.53 388.551C496.718 388.104 496.995 387.7 497.343 387.362C498.051 386.67 499.002 386.282 499.993 386.282C500.978 386.274 501.925 386.657 502.628 387.347C503.331 388.037 503.732 388.977 503.743 389.962Z" fill="#451E18"/>
<path d="M531.793 452.972C531.787 453.941 531.406 454.87 530.73 455.565C530.055 456.259 529.136 456.665 528.168 456.697C527.199 456.73 526.256 456.386 525.536 455.738C524.815 455.09 524.373 454.189 524.303 453.222L520.373 396.942L519.903 390.282C519.898 390.196 519.898 390.109 519.903 390.022C519.909 389.053 520.289 388.124 520.965 387.43C521.641 386.735 522.559 386.329 523.528 386.297C524.496 386.265 525.439 386.609 526.16 387.256C526.88 387.904 527.322 388.806 527.393 389.772L527.893 396.932L531.793 452.712C531.797 452.799 531.797 452.886 531.793 452.972Z" fill="#5E2C1F"/>
<path d="M527.883 396.942H520.373L519.903 390.282C519.898 390.196 519.898 390.109 519.903 390.022C519.909 389.053 520.289 388.124 520.965 387.43C521.641 386.735 522.559 386.329 523.528 386.297C524.496 386.265 525.439 386.609 526.16 387.256C526.88 387.904 527.322 388.806 527.393 389.772L527.883 396.942Z" fill="#451E18"/>
<path d="M464.853 386.202V380.572C464.853 379.198 465.398 377.881 466.37 376.909C467.341 375.938 468.659 375.392 470.033 375.392H526.513C527.887 375.392 529.204 375.938 530.175 376.909C531.147 377.881 531.693 379.198 531.693 380.572V386.202C531.693 387.576 531.147 388.894 530.175 389.865C529.204 390.836 527.887 391.382 526.513 391.382H470.033C468.659 391.382 467.341 390.836 466.37 389.865C465.398 388.894 464.853 387.576 464.853 386.202Z" fill="#89512C"/>
<path d="M479.333 229.772C479.333 229.772 485.513 259.772 496.203 259.772C505.953 259.772 513.493 242.052 515.743 229.202" stroke="#15325E" stroke-miterlimit="10"/>
<path d="M496.013 262.302C491.233 296.302 475.543 315.002 455.713 315.002C431.353 315.002 408.893 289.382 408.893 289.382" stroke="#15325E" stroke-miterlimit="10" stroke-linecap="round"/>
<path d="M494.783 263.192L495.243 260.022L497.233 260.102L496.723 263.482L494.783 263.192Z" fill="#2E5785"/>
<path d="M410.173 456.722L453.123 456.152C452.993 454.772 452.803 453.492 452.573 452.292C451.463 446.412 449.373 442.562 448.213 438.922L443.773 436.922C443.773 436.922 437.993 439.092 424.623 443.002C415.333 445.712 411.843 449.422 410.623 452.302C409.962 453.678 409.803 455.241 410.173 456.722Z" fill="#448FC2"/>
<path d="M410.173 456.722L453.123 456.152C452.993 454.772 452.803 453.492 452.573 452.292H410.573C409.927 453.677 409.785 455.244 410.173 456.722Z" fill="#ADCDDB"/>
<path d="M476.473 337.532C476.473 337.532 426.263 343.582 419.313 355.462C412.363 367.342 426.823 441.512 426.823 441.512L451.543 441.382L449.453 381.242L496.823 353.932L476.473 337.532Z" fill="#08183D"/>
<path d="M423.873 458.352L466.873 457.782C466.743 456.402 466.553 455.122 466.323 453.922C465.213 448.042 463.123 444.192 461.963 440.552L457.523 438.552C457.523 438.552 451.743 440.722 438.373 444.632C429.083 447.342 425.593 451.052 424.373 453.932C423.696 455.302 423.519 456.866 423.873 458.352Z" fill="#53AEDB"/>
<path d="M423.873 458.352L466.873 457.782C466.743 456.402 466.553 455.122 466.323 453.922H424.323C423.66 455.301 423.501 456.868 423.873 458.352Z" fill="#CFF3FC"/>
<path d="M528.683 336.912C528.683 336.912 533.683 373.052 524.873 376.402C516.063 379.752 461.963 380.222 461.963 380.222L464.853 443.532H439.923C439.923 443.532 426.543 370.412 436.633 358.712C446.723 347.012 485.793 347.712 485.163 347.542C479.773 346.182 475.353 337.542 475.353 337.542L528.683 336.912Z" fill="#0F2752"/>
<path d="M538.873 263.842C538.083 261.102 517.103 252.572 517.103 252.572C512.342 262.481 509.829 273.319 509.743 284.312C509.743 302.152 509.813 425.882 509.813 425.882L546.153 423.412C546.153 423.412 544.463 283.172 538.873 263.842Z" fill="#FEFFFE"/>
<path d="M509.743 304.952C509.743 304.952 508.813 287.332 509.743 275.842C510.383 267.962 516.743 252.042 516.743 252.042C519.289 252.846 521.792 253.781 524.243 254.842C526.943 256.112 527.243 278.072 527.023 278.622C526.803 279.172 518.023 285.512 518.023 285.512C518.023 285.512 525.133 292.852 525.083 293.662C525.033 294.472 509.743 304.952 509.743 304.952Z" fill="#E1E8F5"/>
<path d="M515.907 394.021L515.37 398.338L538.015 401.155L538.552 396.838L515.907 394.021Z" fill="#E1E8F5"/>
<path d="M494.583 325.002C494.583 325.002 485.463 326.282 485.923 328.892C486.383 331.502 497.113 330.612 497.113 330.612L494.583 325.002Z" fill="#D68163"/>
<path d="M501.173 319.572C500.875 319.19 500.493 318.882 500.057 318.672C499.621 318.462 499.142 318.356 498.658 318.362C498.174 318.368 497.697 318.486 497.266 318.706C496.835 318.926 496.461 319.243 496.173 319.632L492.813 322.692C491.583 323.812 490.293 325.032 489.933 326.692C489.833 327.125 489.831 327.574 489.927 328.008C490.022 328.441 490.212 328.848 490.484 329.199C490.756 329.551 491.102 329.837 491.498 330.038C491.893 330.239 492.329 330.35 492.773 330.362C492.58 330.793 492.499 331.265 492.537 331.736C492.576 332.206 492.732 332.659 492.993 333.052C493.294 333.451 493.684 333.773 494.132 333.993C494.58 334.214 495.073 334.327 495.573 334.322C495.473 334.737 495.474 335.17 495.577 335.584C495.68 335.999 495.881 336.382 496.163 336.702C496.438 337.069 496.838 337.323 497.287 337.417C497.736 337.51 498.203 337.438 498.603 337.212C498.657 337.885 498.932 338.521 499.386 339.021C499.841 339.52 500.448 339.855 501.113 339.972C501.755 340.114 502.422 340.097 503.056 339.922C503.691 339.748 504.273 339.422 504.753 338.972C508.753 341.022 512.923 337.842 512.923 337.842C512.923 337.842 514.433 331.942 515.203 329.292C514.243 328.692 504.743 322.122 501.173 319.572Z" fill="#E8AA80"/>
<path d="M493.023 329.742C494.576 327.785 496.39 326.049 498.413 324.582" stroke="#CF5953" stroke-linecap="round" stroke-linejoin="round"/>
<path d="M495.743 333.842C497.083 332.059 498.661 330.467 500.433 329.112" stroke="#CF5953" stroke-linecap="round" stroke-linejoin="round"/>
<path d="M498.663 336.602C499.666 335.148 500.804 333.792 502.063 332.552" stroke="#CF5953" stroke-linecap="round" stroke-linejoin="round"/>
<path d="M504.333 338.062C504.019 337.855 503.753 337.582 503.552 337.263C503.352 336.944 503.223 336.586 503.173 336.212" stroke="#CF5953" stroke-linecap="round" stroke-linejoin="round"/>
<path d="M503.573 337.532C503.049 337.905 502.434 338.13 501.793 338.182" stroke="#CF5953" stroke-linecap="round" stroke-linejoin="round"/>
<path d="M511.693 327.642L521.363 326.862L523.403 339.402L510.423 338.962L511.693 327.642Z" fill="#E8AA80"/>
<path d="M526.743 284.372L532.803 259.782C532.803 259.782 543.753 266.252 545.583 268.782C549.213 273.852 568.323 327.382 562.303 333.402C556.283 339.422 518.083 344.232 518.083 344.232L514.353 326.842C514.353 326.842 537.573 323.192 537.433 320.012C537.293 316.832 526.743 284.372 526.743 284.372Z" fill="#FEFFFE"/>
<path d="M534.863 272.042C531.546 281.478 531.135 291.691 533.683 301.362C535.132 306.442 537.009 311.389 539.293 316.152C531.148 319.998 522.803 323.403 514.293 326.352" stroke="#E1E8F5" stroke-miterlimit="10" stroke-linecap="round"/>
<path d="M517.243 340.042C517.676 341.745 518.228 343.416 518.893 345.042C526.893 343.992 535.623 343.042 543.313 340.582" stroke="#E1E8F5" stroke-miterlimit="10" stroke-linecap="round"/>
<path d="M535.273 306.992C532.003 305.883 529.264 303.594 527.593 300.572" stroke="#E1E8F5" stroke-miterlimit="10" stroke-linecap="round"/>
<path d="M469.083 191.762C488.854 191.762 504.883 175.734 504.883 155.962C504.883 136.19 488.854 120.162 469.083 120.162C449.311 120.162 433.283 136.19 433.283 155.962C433.283 175.734 449.311 191.762 469.083 191.762Z" fill="#82CED8"/>
<path d="M446.063 145.842C454.543 132.022 469.063 150.122 469.063 150.122C469.063 150.122 484.383 133.922 492.063 145.842C501.323 160.262 468.693 178.162 468.693 178.162C468.693 178.162 437.233 160.232 446.063 145.842Z" fill="#BA2F54"/>
<path d="M436.733 159.362H455.403L458.283 147.892L464.073 170.952L469.083 142.832L473.283 168.032L479.833 152.232L482.683 159.412H497.913" stroke="#FFF0F4" stroke-miterlimit="10"/>
<path d="M230.363 118.292C250.134 118.292 266.163 102.264 266.163 82.4923C266.163 62.7205 250.134 46.6923 230.363 46.6923C210.591 46.6923 194.563 62.7205 194.563 82.4923C194.563 102.264 210.591 118.292 230.363 118.292Z" fill="#82CED8"/>
<path d="M229.393 55.8422C230.631 55.3855 231.948 55.1786 233.267 55.2333C234.586 55.2881 235.881 55.6035 237.077 56.1613C238.274 56.7191 239.348 57.5082 240.238 58.4833C241.128 59.4583 241.816 60.5999 242.263 61.8422L251.743 87.6522C252.658 90.1505 252.543 92.91 251.423 95.3236C250.304 97.7372 248.271 99.6072 245.773 100.522C243.274 101.437 240.515 101.322 238.101 100.203C235.688 99.0831 233.818 97.0505 232.903 94.5522L223.423 68.7422C222.961 67.5037 222.749 66.1859 222.799 64.8651C222.85 63.5442 223.161 62.2464 223.717 61.0468C224.272 59.8472 225.059 58.7695 226.034 57.8762C227.008 56.9828 228.15 56.2915 229.393 55.8422Z" fill="#941B3F"/>
<path d="M229.393 55.8422C230.631 55.3855 231.948 55.1786 233.267 55.2333C234.586 55.2881 235.881 55.6035 237.077 56.1613C238.274 56.7191 239.348 57.5082 240.238 58.4833C241.128 59.4583 241.816 60.5999 242.263 61.8422L246.993 74.7522L228.153 81.6522L223.423 68.7422C222.961 67.5037 222.749 66.1859 222.799 64.8651C222.85 63.5442 223.161 62.2464 223.717 61.0468C224.272 59.8472 225.059 58.7695 226.034 57.8762C227.008 56.9828 228.15 56.2915 229.393 55.8422Z" fill="#EBE1E2"/>
<path d="M205.993 73.1723C206.922 72.238 208.027 71.4966 209.243 70.9907C210.46 70.4848 211.765 70.2244 213.083 70.2244C214.4 70.2244 215.705 70.4848 216.922 70.9907C218.139 71.4966 219.243 72.238 220.173 73.1723L239.613 92.6123C241.5 94.4927 242.562 97.0456 242.567 99.7096C242.572 102.374 241.518 104.93 239.638 106.817C237.757 108.704 235.204 109.767 232.54 109.772C229.876 109.776 227.32 108.723 225.433 106.842L205.993 87.4023C205.051 86.4721 204.303 85.3642 203.793 84.1429C203.282 82.9215 203.02 81.611 203.02 80.2873C203.02 78.9636 203.282 77.653 203.793 76.4317C204.303 75.2103 205.051 74.1024 205.993 73.1723Z" fill="#BA2F54"/>
<path d="M205.993 73.1723C206.922 72.238 208.027 71.4966 209.243 70.9907C210.46 70.4848 211.765 70.2244 213.083 70.2244C214.4 70.2244 215.705 70.4848 216.922 70.9907C218.139 71.4966 219.243 72.238 220.173 73.1723L229.893 82.8923L215.743 97.0723L206.023 87.3523C205.086 86.425 204.343 85.3218 203.834 84.1061C203.326 82.8904 203.063 81.5862 203.06 80.2685C203.057 78.9508 203.315 77.6455 203.818 76.4277C204.321 75.2099 205.06 74.1035 205.993 73.1723Z" fill="white"/>
<path d="M458.523 82.4922C478.294 82.4922 494.323 66.464 494.323 46.6922C494.323 26.9204 478.294 10.8922 458.523 10.8922C438.751 10.8922 422.723 26.9204 422.723 46.6922C422.723 66.464 438.751 82.4922 458.523 82.4922Z" fill="#82CED8"/>
<path d="M477.993 25.8423V52.0623C477.99 54.781 477.322 57.4577 476.048 59.8595C474.774 62.2612 472.932 64.315 470.683 65.8423L461.553 72.0323C460.818 72.5322 459.952 72.8053 459.063 72.8177C458.174 72.8301 457.301 72.5814 456.553 72.1023L446.743 65.8423C444.393 64.3369 442.459 62.2669 441.115 59.8213C439.772 57.3757 439.063 54.6325 439.053 51.8423V25.8423H477.993Z" fill="white"/>
<path d="M477.993 25.8423V52.0623C477.99 54.781 477.322 57.4577 476.048 59.8595C474.774 62.2612 472.932 64.315 470.683 65.8423L461.553 72.0323C460.675 72.6339 459.611 72.9034 458.553 72.7923V25.8423H477.993Z" fill="#EBE1E2"/>
<path d="M470.383 43.9523H446.663V51.2823H470.383V43.9523Z" fill="#BA2F54"/>
<path d="M462.193 35.7622H454.863V59.4822H462.193V35.7622Z" fill="#BA2F54"/>
</svg>
